# xmcd
#
# Track frame offsets: 
#        150
#        13285
#        24235
#        36097
#        53837
#        69740
#        83357
#        96610
#        113915
#        126565
#        138987
#
# Disc length: 1989 seconds
#
# Revision: 4
# Processed by: cddbd v1.5.1PL0 Copyright (c) Steve Scherf et al.
# Submitted via: ExactAudioCopy v0.90b4
#
DISCID=9607c30b
DTITLE=Wild Rose - Breaking New Ground
DYEAR=1990
DGENRE=Country
TTITLE0=Breaking New Ground
TTITLE1=I Can't Lose What I Never Had
TTITLE2=Go Down Swingin'
TTITLE3=Where Did We Go Wrong
TTITLE4=Lonesome Highway (To The End Of The Rainbow)
TTITLE5=On The Bayou
TTITLE6=Home Sweet Highway
TTITLE7=Teach Me How To Say Goodbye
TTITLE8=Who Needs You
TTITLE9=Easy To Say, Hard To Prove
TTITLE10=Wild Rose
EXTD=more info - MillenniumMusicProjectFormat - SYNTAX=SongTitle{Subtit
EXTD=le}[miscInfo](Lyricist;Composer;Date,Artist,Location,State,Countr
EXTD=y)
EXTT0=
EXTT1=
EXTT2=
EXTT3=
EXTT4=
EXTT5=
EXTT6=
EXTT7=
EXTT8=
EXTT9=
EXTT10=
PLAYORDER=
